<svg xmlns="http://www.w3.org/2000/svg" viewBox="0 0 1200 420" preserveAspectRatio="xMidYMax slice" aria-hidden="true">
  <defs>
    <filter id="mtn-wobble" x="-3%" y="-3%" width="106%" height="106%">
      <feTurbulence type="fractalNoise" baseFrequency="0.036" numOctaves="2" seed="11" result="n"/>
      <feDisplacementMap in="SourceGraphic" in2="n" scale="2.4" xChannelSelector="R" yChannelSelector="G"/>
    </filter>
  </defs>
  <g filter="url(#mtn-wobble)" stroke-linecap="round" stroke-linejoin="round">
    <path fill="#f0e7c4" stroke="none" d="M0 420V285 C45 278 82 248 128 235 C172 222 205 255 252 232 C298 208 332 245 378 218 C424 192 458 238 508 208 C552 182 578 148 612 122 C638 102 662 128 692 108 C728 84 758 118 798 96 C838 74 868 108 908 88 C948 68 982 102 1022 82 C1062 62 1095 96 1135 78 C1168 62 1188 88 1200 76 V420 H0Z"/>
    <path fill="#e8deaa" stroke="none" d="M0 420V318 C62 308 108 272 168 258 C228 244 268 292 332 268 C396 244 436 286 500 262 C564 238 604 278 668 254 C732 230 772 268 836 246 C900 224 940 258 1004 236 C1068 214 1108 248 1172 228 C1188 222 1196 232 1200 226 V420 H0Z"/>
    <path fill="#e0d492" stroke="none" d="M0 420V362 C78 348 142 312 218 298 C294 284 348 328 424 308 C500 288 554 322 630 302 C706 282 760 316 836 298 C912 280 966 312 1042 294 C1118 276 1162 302 1200 288 V420 H0Z"/>

    <g fill="none" stroke="#c4a03a" stroke-width="1.6" opacity="0.36">
      <path d="M0 285 C45 278 82 248 128 235 C172 222 205 255 252 232 C298 208 332 245 378 218 C424 192 458 238 508 208"/>
      <path d="M508 208 C552 182 578 148 612 122 C638 102 662 128 692 108"/>
      <path d="M692 108 C728 84 758 118 798 96 C838 74 868 108 908 88"/>
      <path d="M908 88 C948 68 982 102 1022 82 C1062 62 1095 96 1135 78"/>
      <path d="M0 318 C62 308 108 272 168 258 C228 244 268 292 332 268 C396 244 436 286 500 262"/>
      <path d="M500 262 C564 238 604 278 668 254 C732 230 772 268 836 246"/>
      <path d="M0 362 C78 348 142 312 218 298 C294 284 348 328 424 308 C500 288 554 322 630 302"/>
      <path d="M630 302 C706 282 760 316 836 298 C912 280 966 312 1042 294"/>
    </g>

    <g fill="none" stroke="#b8942e" stroke-width="0.95" opacity="0.15">
      <path d="M618 128 L632 152 M626 134 L640 158 M634 140 L648 164"/>
      <path d="M702 112 L716 136 M710 118 L724 142 M718 124 L732 148"/>
      <path d="M488 218 L502 242 M496 224 L510 248"/>
      <path d="M812 98 L826 122 M820 104 L834 128"/>
      <path d="M928 92 L942 116 M936 98 L950 122"/>
      <path d="M1058 86 L1072 110 M1066 92 L1080 116"/>
    </g>

    <g fill="none" stroke="#b8942e" stroke-width="0.85" opacity="0.12">
      <path d="M624 132 L642 158 M632 138 L650 164 M640 144 L658 170"/>
      <path d="M708 116 L726 142 M716 122 L734 148 M724 128 L742 154"/>
      <path d="M494 222 L512 248 M502 228 L520 254"/>
      <path d="M818 102 L836 128 M828 108 L846 134"/>
      <path d="M934 96 L952 122 M944 102 L962 128"/>
    </g>

    <g fill="none" stroke="#a88828" stroke-width="1.35" opacity="0.3">
      <path d="M72 378 C92 368 108 372 124 362 M138 374 C156 366 170 370 186 360"/>
      <path d="M248 372 C268 362 284 366 300 356 M314 368 C332 360 346 364 362 354"/>
      <path d="M428 376 C448 366 464 370 480 360 M494 372 C512 364 526 368 542 358"/>
      <path d="M612 374 C632 364 648 368 664 358 M678 370 C696 362 710 366 726 356"/>
      <path d="M792 372 C812 362 828 366 844 356 M858 368 C876 360 890 364 906 354"/>
      <path d="M968 376 C988 366 1004 370 1020 360 M1034 372 C1052 364 1066 368 1082 358"/>
    </g>

    <g fill="none" stroke="#967820" stroke-width="1.3" opacity="0.34">
      <path d="M82 382 V364 M79 372 L82 366 L85 372 M77 376 L82 370 L87 376 M76 380 L82 374 L88 380"/>
      <path d="M148 378 V360 M145 368 L148 362 L151 368 M143 372 L148 366 L153 372 M142 376 L148 370 L154 376"/>
      <path d="M212 384 V366 M209 374 L212 368 L215 374 M207 378 L212 372 L217 378"/>
      <path d="M288 376 V358 M285 366 L288 360 L291 366 M283 370 L288 364 L293 370"/>
      <path d="M352 380 V362 M349 370 L352 364 L355 370 M347 374 L352 368 L357 374 M346 378 L352 372 L358 378"/>
      <path d="M428 374 V356 M425 364 L428 358 L431 364 M423 368 L428 362 L433 368"/>
      <path d="M502 382 V364 M499 372 L502 366 L505 372 M497 376 L502 370 L507 376 M496 380 L502 374 L508 380"/>
      <path d="M578 376 V358 M575 366 L578 360 L581 366 M573 370 L578 364 L583 370"/>
      <path d="M648 380 V362 M645 370 L648 364 L651 370 M643 374 L648 368 L653 374"/>
      <path d="M724 374 V356 M721 364 L724 358 L727 364 M719 368 L724 362 L729 368"/>
      <path d="M798 382 V364 M795 372 L798 366 L801 372 M793 376 L798 370 L803 376"/>
      <path d="M872 376 V358 M869 366 L872 360 L875 366 M867 370 L872 364 L877 370 M866 374 L872 368 L878 374"/>
      <path d="M948 380 V362 M945 370 L948 364 L951 370 M943 374 L948 368 L953 374"/>
      <path d="M1024 374 V356 M1021 364 L1024 358 L1027 364 M1019 368 L1024 362 L1029 368"/>
      <path d="M1098 382 V364 M1095 372 L1098 366 L1101 372 M1093 376 L1098 370 L1103 376"/>
    </g>
  </g>
</svg>
